<svg xmlns="http://www.w3.org/2000/svg" viewBox="0 0 400 250">
  <defs>
    <clipPath id="pantallaLx"><rect x="158" y="17" width="84" height="216" rx="12"/></clipPath>
    <linearGradient id="lxAcento" x1="0" y1="0" x2="1" y2="1">
      <stop offset="0" stop-color="#7C5CFF"/>
      <stop offset="1" stop-color="#00E5A0"/>
    </linearGradient>
  </defs>

  <circle cx="200" cy="128" r="95" fill="#DBEAFE" opacity="0.45"/>
  <circle cx="298" cy="62" r="14" fill="#DBEAFE" opacity="0.6"/>
  <circle cx="102" cy="196" r="10" fill="#DBEAFE" opacity="0.6"/>

  <rect x="152" y="10" width="96" height="230" rx="18" fill="#111827"/>
  <rect x="158" y="17" width="84" height="216" rx="12" fill="#0A0E1C"/>

  <g clip-path="url(#pantallaLx)">
    <!-- Encabezado: isotipo + nombre del evento -->
    <rect x="166" y="30" width="16" height="16" rx="5" fill="url(#lxAcento)"/>
    <path d="M170.5 34.5v5.5h5" fill="none" stroke="#0A0E1C" stroke-width="1.6" stroke-linecap="round" stroke-linejoin="round"/>
    <path d="M173.5 37.5l4 4.5M177.5 37.5l-4 4.5" fill="none" stroke="#0A0E1C" stroke-width="1.4" stroke-linecap="round"/>
    <rect x="188" y="32" width="20" height="3.4" rx="1.7" fill="#4A5578"/>
    <rect x="188" y="39" width="30" height="5" rx="2.5" fill="#F2F5FF"/>

    <!-- Tarjeta de ingreso general (dictado) -->
    <rect x="165" y="54" width="70" height="32" rx="10" fill="#121A30" stroke="#4A3BA8"/>
    <rect x="170" y="61" width="18" height="18" rx="6" fill="url(#lxAcento)"/>
    <rect x="176.6" y="65" width="4.8" height="7.5" rx="2.4" fill="#0A0E1C"/>
    <path d="M174.8 71.2a4.2 4.2 0 0 0 8.4 0" fill="none" stroke="#0A0E1C" stroke-width="1.4" stroke-linecap="round"/>
    <rect x="193" y="64" width="26" height="4" rx="2" fill="#F2F5FF"/>
    <rect x="193" y="71" width="34" height="3" rx="1.5" fill="#4A5578"/>
    <rect x="193" y="76" width="22" height="3" rx="1.5" fill="#4A5578"/>

    <!-- Campos rellenados por el reparto de la IA -->
    <rect x="165" y="93" width="70" height="12" rx="4.5" fill="#121A30" stroke="#00E5A0"/>
    <rect x="170" y="97.5" width="30" height="3.2" rx="1.6" fill="#F2F5FF"/>
    <rect x="225" y="96" width="6" height="6" rx="2" fill="#1A2440"/>

    <rect x="165" y="108" width="70" height="12" rx="4.5" fill="#121A30" stroke="#00E5A0"/>
    <rect x="170" y="112.5" width="24" height="3.2" rx="1.6" fill="#F2F5FF"/>
    <rect x="225" y="111" width="6" height="6" rx="2" fill="#1A2440"/>

    <rect x="165" y="123" width="70" height="12" rx="4.5" fill="#121A30" stroke="#242C48"/>
    <rect x="170" y="127.5" width="18" height="3.2" rx="1.6" fill="#4A5578"/>
    <rect x="225" y="126" width="6" height="6" rx="2" fill="#1A2440"/>

    <rect x="165" y="138" width="70" height="12" rx="4.5" fill="#121A30" stroke="#242C48"/>
    <rect x="170" y="142.5" width="27" height="3.2" rx="1.6" fill="#4A5578"/>
    <rect x="225" y="141" width="6" height="6" rx="2" fill="#1A2440"/>

    <rect x="165" y="153" width="70" height="18" rx="5" fill="#121A30" stroke="#242C48"/>
    <rect x="170" y="158" width="36" height="3" rx="1.5" fill="#4A5578"/>
    <rect x="170" y="164" width="24" height="3" rx="1.5" fill="#4A5578"/>

    <!-- Fotos de evidencia -->
    <rect x="165" y="178" width="21" height="21" rx="6" fill="#121A30" stroke="#242C48" stroke-dasharray="3 2"/>
    <rect x="189.5" y="178" width="21" height="21" rx="6" fill="#121A30" stroke="#242C48" stroke-dasharray="3 2"/>
    <rect x="214" y="178" width="21" height="21" rx="6" fill="#121A30" stroke="#242C48" stroke-dasharray="3 2"/>

    <!-- Guardar lead -->
    <rect x="165" y="206" width="70" height="15" rx="6" fill="url(#lxAcento)"/>
  </g>

  <rect x="186" y="22" width="28" height="4" rx="2" fill="#111827"/>
</svg>
