<svg xmlns="http://www.w3.org/2000/svg" viewBox="0 0 400 250">
  <defs>
    <clipPath id="pantallaB"><rect x="158" y="17" width="84" height="216" rx="12"/></clipPath>
  </defs>

  <circle cx="200" cy="128" r="95" fill="#EFF6FF"/>
  <circle cx="110" cy="60" r="14" fill="#DBEAFE" opacity="0.7"/>
  <circle cx="292" cy="196" r="9" fill="#DBEAFE" opacity="0.7"/>

  <rect x="152" y="10" width="96" height="230" rx="18" fill="#111827"/>
  <rect x="158" y="17" width="84" height="216" rx="12" fill="#1F2937"/>

  <g clip-path="url(#pantallaB)">
    <rect x="166" y="30" width="42" height="8" rx="4" fill="#F9FAFB"/>
    <rect x="166" y="44" width="28" height="5" rx="2.5" fill="#6B7280"/>
    <circle cx="230" cy="36" r="6" fill="#374151"/>

    <!-- tarjeta destacada -->
    <rect x="166" y="60" width="68" height="42" rx="8" fill="#2563EB"/>
    <rect x="174" y="68" width="30" height="6" rx="3" fill="#BFDBFE"/>
    <rect x="174" y="80" width="44" height="10" rx="5" fill="#FFFFFF"/>
    <circle cx="224" cy="72" r="5" fill="#60A5FA"/>

    <!-- mini gráfico de barras -->
    <rect x="166" y="112" width="68" height="46" rx="8" fill="#111827"/>
    <rect x="174" y="132" width="8" height="18" rx="2" fill="#3B82F6"/>
    <rect x="187" y="124" width="8" height="26" rx="2" fill="#60A5FA"/>
    <rect x="200" y="136" width="8" height="14" rx="2" fill="#3B82F6"/>
    <rect x="213" y="120" width="8" height="30" rx="2" fill="#F97316"/>

    <!-- filas -->
    <g>
      <circle cx="174" cy="174" r="6" fill="#374151"/>
      <rect x="186" y="168" width="34" height="6" rx="3" fill="#E5E7EB"/>
      <rect x="186" y="178" width="22" height="4" rx="2" fill="#6B7280"/>
      <rect x="216" y="169" width="18" height="10" rx="5" fill="#374151"/>
    </g>
    <g>
      <circle cx="174" cy="198" r="6" fill="#374151"/>
      <rect x="186" y="192" width="30" height="6" rx="3" fill="#E5E7EB"/>
      <rect x="186" y="202" width="24" height="4" rx="2" fill="#6B7280"/>
      <rect x="216" y="193" width="18" height="10" rx="5" fill="#7C2D12"/>
    </g>

    <rect x="158" y="214" width="84" height="19" fill="#111827"/>
    <circle cx="182" cy="223" r="3" fill="#4B5563"/>
    <circle cx="200" cy="223" r="3" fill="#3B82F6"/>
    <circle cx="218" cy="223" r="3" fill="#4B5563"/>
  </g>

  <rect x="186" y="22" width="28" height="4" rx="2" fill="#111827"/>
</svg>
