<svg xmlns="http://www.w3.org/2000/svg" viewBox="0 0 400 250">
  <!-- ventana de aplicación de escritorio -->
  <rect x="30" y="18" width="340" height="214" rx="12" fill="#FFFFFF" stroke="#E5E7EB"/>
  <line x1="30" y1="46" x2="370" y2="46" stroke="#EEF2F6" stroke-width="1.5"/>
  <circle cx="48" cy="32" r="4" fill="#FCA5A5"/>
  <circle cx="62" cy="32" r="4" fill="#FCD34D"/>
  <circle cx="76" cy="32" r="4" fill="#A7F3D0"/>
  <rect x="92" y="25" width="180" height="14" rx="7" fill="#F8FAFC" stroke="#EEF2F6"/>

  <!-- filtros -->
  <rect x="46" y="56" width="54" height="18" rx="9" fill="#2563EB"/>
  <rect x="56" y="62" width="34" height="6" rx="3" fill="#DBEAFE"/>
  <rect x="106" y="56" width="54" height="18" rx="9" fill="#F8FAFC" stroke="#E5E7EB"/>
  <rect x="116" y="62" width="34" height="6" rx="3" fill="#CBD5E1"/>
  <rect x="166" y="56" width="54" height="18" rx="9" fill="#F8FAFC" stroke="#E5E7EB"/>
  <rect x="176" y="62" width="34" height="6" rx="3" fill="#CBD5E1"/>
  <rect x="290" y="56" width="64" height="18" rx="9" fill="#F8FAFC" stroke="#E5E7EB"/>
  <circle cx="302" cy="65" r="4" fill="none" stroke="#9CA3AF" stroke-width="1.5"/>
  <line x1="305" y1="68" x2="308" y2="71" stroke="#9CA3AF" stroke-width="1.5" stroke-linecap="round"/>

  <!-- encabezado de tabla -->
  <rect x="46" y="84" width="308" height="16" rx="5" fill="#F8FAFC"/>
  <rect x="54" y="89" width="60" height="6" rx="3" fill="#9CA3AF"/>
  <rect x="150" y="89" width="40" height="6" rx="3" fill="#9CA3AF"/>
  <rect x="230" y="89" width="40" height="6" rx="3" fill="#9CA3AF"/>
  <rect x="304" y="89" width="30" height="6" rx="3" fill="#9CA3AF"/>

  <!-- filas -->
  <g>
    <rect x="46" y="106" width="308" height="24" rx="6" fill="#FFFFFF"/>
    <rect x="54" y="115" width="70" height="6" rx="3" fill="#374151"/>
    <rect x="150" y="115" width="50" height="6" rx="3" fill="#D1D5DB"/>
    <rect x="230" y="112" width="44" height="12" rx="6" fill="#DBEAFE"/>
    <rect x="304" y="115" width="36" height="6" rx="3" fill="#6B7280"/>
  </g>
  <g>
    <rect x="46" y="136" width="308" height="24" rx="6" fill="#F8FAFC"/>
    <rect x="54" y="145" width="58" height="6" rx="3" fill="#374151"/>
    <rect x="150" y="145" width="44" height="6" rx="3" fill="#D1D5DB"/>
    <rect x="230" y="142" width="44" height="12" rx="6" fill="#FFEDD5"/>
    <rect x="304" y="145" width="30" height="6" rx="3" fill="#6B7280"/>
  </g>
  <g>
    <rect x="46" y="166" width="308" height="24" rx="6" fill="#FFFFFF"/>
    <rect x="54" y="175" width="66" height="6" rx="3" fill="#374151"/>
    <rect x="150" y="175" width="54" height="6" rx="3" fill="#D1D5DB"/>
    <rect x="230" y="172" width="44" height="12" rx="6" fill="#DBEAFE"/>
    <rect x="304" y="175" width="34" height="6" rx="3" fill="#6B7280"/>
  </g>
  <g>
    <rect x="46" y="196" width="308" height="24" rx="6" fill="#F8FAFC"/>
    <rect x="54" y="205" width="62" height="6" rx="3" fill="#374151"/>
    <rect x="150" y="205" width="46" height="6" rx="3" fill="#D1D5DB"/>
    <rect x="230" y="202" width="44" height="12" rx="6" fill="#E5E7EB"/>
    <rect x="304" y="205" width="28" height="6" rx="3" fill="#6B7280"/>
  </g>
</svg>
